<svg xmlns="http://www.w3.org/2000/svg" xmlns:xlink="http://www.w3.org/1999/xlink" height="21.45526573726653" width="17.814289859295286">
  <g opacity="1">
    <path fill="rgb(125,125,125)" fill-opacity="1" opacity="1" fill-rule="evenodd" d="M17.450771398751385 8.624664306640625C17.814289159981854 6.370330810546875 15.961582250802167 5.158355712890625 13.427917547433026 4.349945068359375L14.250774450509198 1.29632568359375L12.24373633405412 0.833160400390625L11.442089147774823 3.80645751953125C10.91509634992326 3.684844970703125 10.373474188058026 3.569305419921875 9.835144109933026 3.456146240234375L10.639713354317792 0.463165283203125L8.634689398018963 0L7.814209051339276 3.05242919921875L3.767219610421307 2.12371826171875L3.233276434151776 4.109375C3.233276434151776 4.109375 4.722099371163495 4.425506591796875 4.6906471922084165 4.445159912109375C5.503261633126385 4.6331787109375 5.650646276681073 5.131256103515625 5.625778265206463 5.526336669921875L3.3740769102259947 13.89178466796875C3.2746010496302915 14.1204833984375 3.0226250364466978 14.46337890625 2.454670019356854 14.332244873046875C2.4747849180384947 14.359344482421875 0.996204443184979 13.993438720703125 0.996204443184979 13.993438720703125L6.696427590213716e-8 16.12445068359375L4.041137762276776 17.069732666015625L3.210601873604901 20.158935546875L5.214714117257245 20.622100830078125L6.0375710203334165 17.566131591796875C6.586139745919354 17.70367431640625 7.1164284422084165 17.830718994140625 7.63610465070451 17.950347900390625L6.816539831368573 20.992095947265625L8.823215551583417 21.45526123046875L9.653751440255292 18.37200927734375C13.075550146309979 18.971710205078125 15.648716039864667 18.72979736328125 16.730312414376385 15.86474609375C17.60290915509904 13.5565185546875 16.687526769845135 12.224945068359375 14.887115545479901 11.356231689453125C16.198200292794354 11.07501220703125 17.185627050606854 10.276397705078125 17.449123449532635 8.6258544921875L17.450771398751385 8.624664306640625ZM8.624969549386151 9.44329833984375C9.990360326974042 9.78106689453125 12.968486852852948 10.517791748046875 13.487163610665448 8.591949462890625L13.485698766915448 8.591796875C14.015773840157635 6.623626708984375 11.123779363839276 6.02978515625 9.70916373273576 5.739288330078125C9.549511022774823 5.706512451171875 9.408680029122479 5.677581787109375 9.293705053536542 5.6510009765625L8.296035833565838 9.36346435546875C8.390358038155682 9.38525390625 8.501018591134198 9.412628173828125 8.624969549386151 9.44329833984375ZM12.864719457833417 14.580963134765625C12.294143743722088 16.69927978515625 8.714992590157635 15.822967529296875 7.07812125226701 15.422210693359375C6.931407995431073 15.38629150390625 6.8002968504115415 15.35418701171875 6.6883583738490415 15.328399658203125L7.790252752511151 11.236297607421875C7.926891393868573 11.26788330078125 8.093822546212323 11.302581787109375 8.282924719063885 11.341888427734375C9.976112432686932 11.69384765625 13.446743078438885 12.415283203125 12.865448065011151 14.58062744140625L12.864719457833417 14.580963134765625Z"/>
  </g>
</svg>