<svg xmlns="http://www.w3.org/2000/svg" xmlns:xlink="http://www.w3.org/1999/xlink" height="23.802255365334076" width="241.67003993393803">
  <g opacity="1">
    <path fill="rgb(125,125,125)" fill-opacity="1" opacity="1" fill-rule="evenodd" d="M238.67570748212256 14.126733148958238C239.0420137870542 14.297875727083238 239.39641060712256 14.521203363801988 239.72996010663428 14.801049555208238C241.1015497672788 15.951928461458238 241.67003884198584 17.854028070833238 241.15515389325537 19.561303461458238C240.24451317670264 22.578149164583238 236.73794045331397 23.802270258333238 234.14697518231787 22.107812250520738C232.43157830121436 20.986108148958238 231.66090645673194 18.798302973176988 232.30682625653662 16.862756098176988C232.6069551933042 15.964440668489488 233.14136376264014 15.235619867708238 233.81144204022803 14.703515375520738C234.44478859784522 14.200646723176988 234.76543297650733 13.403466547395738 234.73796715619483 12.599084223176988L234.70024361493506 11.493859613801988C234.67145790936866 10.660241449739488 234.1893297660581 9.908410395051988 233.4411608207456 9.529382074739488L233.41733803632178 9.517602289583238C232.6704889762632 9.136559809114488 231.77374520184912 9.188134516145738 231.07620110394873 9.652551020051988L230.6807734000913 9.915673578645738C229.93525185468116 10.411645258333238 229.46702446820655 11.244897211458238 229.49349465253272 12.135339105989488C229.52030053021826 13.038232172395738 229.27907051923194 13.964135492708238 228.73076500775733 14.796105707551988C227.57029213788428 16.557641352083238 225.26224770429053 17.313073480989488 223.275179528021 16.579614008333238C220.4224726188413 15.526574457551988 219.33711113812842 12.119592035676988 221.08195748212256 9.625939691926988C222.07433571698584 8.207726801301988 223.84664788129248 7.4778684028644875 225.56700768353858 7.7340939888019875C226.02398552777686 7.8020871528644875 226.44026055219092 7.9295285591144875 226.81782021405616 8.102929438020738C227.6923929679624 8.504968012239488 228.70561852338233 8.465539301301988 229.50607170941748 7.9331296333332375L229.67085900189795 7.8234494575519875C230.45973076703467 7.2985471138019875 230.91803231122412 6.4133542427082375 230.9100901115171 5.4707272895832375C230.9041315543882 4.7540524848957375 231.06726708295264 4.0258420356769875 231.41901650311866 3.3436520942707375C232.72144951703467 0.8182004341144875 236.0556208122007 0.00002416458323750703 238.4301744926206 1.8479245552082375C239.88151039960303 2.9774411567707375 240.5112177360288 4.9287961372394875 239.9923655021421 6.6856931098957375C239.67138924481787 7.7741330513019875 239.01322426679053 8.631432855989488 238.18133797528662 9.205224359895738C237.41496529462256 9.733666742708238 236.98479332806983 10.622155512239488 237.01623024823584 11.548058832551988L237.02350869061866 11.757592523958238C237.05924477460303 12.800439203645738 237.72436013104834 13.683007563020738 238.67570748212256 14.126733148958238Z"/>
  </g>
</svg>